# xmcd
#
# Track frame offsets:
# 150
# 11180
# 24392
# 35277
# 48285
# 59795
# 71012
# 83065
# 102685
# 113107
# 125710
#
# Disc length: 1815 seconds
#
#
# Revision: 0
# Processed by: cddbd v1.5PL3 Copyright (c) Steve Scherf et al.
# Submitted via: FreeRIP 2.53 
#
DISCID=9a07150b
DTITLE=The Mills Brothers - Country Music's Greatest Hits
DYEAR=1900
DGENRE=
TTITLE0=Between Winston-Salem and Nashville Tennessee
TTITLE1=Jealous Heart
TTITLE2=I Can't Stop Loving You
TTITLE3=Ramblin' Rose
TTITLE4=Tennessee Waltz
TTITLE5=Red River Valley
TTITLE6=You Are My Sunshine
TTITLE7=El Paso
TTITLE8=Mexicali Rose
TTITLE9=Cold, Cold Heart
TTITLE10=San Antonio Rose
EXTD=
EXTT0=
EXTT1=
EXTT2=
EXTT3=
EXTT4=
EXTT5=
EXTT6=
EXTT7=
EXTT8=
EXTT9=
EXTT10=
PLAYORDER=
